<svg width="12" height="14" viewBox="0 0 12 14" fill="none" xmlns="http://www.w3.org/2000/svg">
<path d="M0.247767 10.736C0.247767 9.99944 0.557477 9.28795 1.08482 8.76897L5.9481 3.90569C6.27455 3.57087 6.72656 3.37835 7.19531 3.37835C8.11607 3.37835 8.83594 4.09821 8.83594 5.01897C8.83594 5.47935 8.64342 5.93973 8.30859 6.26618L4.87667 9.6981C4.82645 9.74833 4.75949 9.78181 4.69252 9.78181C4.51674 9.78181 4.03962 9.30469 4.03962 9.12891C4.03962 9.06194 4.0731 8.99498 4.12333 8.94475L7.55525 5.51283C7.6808 5.37891 7.76451 5.20312 7.76451 5.01897C7.76451 4.69252 7.52176 4.45815 7.20368 4.45815C7.01953 4.45815 6.83538 4.53348 6.70145 4.65904L1.83817 9.52232C1.52009 9.8404 1.31083 10.2757 1.31083 10.736C1.31083 11.4475 1.83817 11.9749 2.54966 11.9749C3.00167 11.9749 3.44531 11.7656 3.76339 11.4475L10.2589 4.94364C10.6607 4.54185 10.8951 3.99777 10.8951 3.42857C10.8951 2.24833 9.97433 1.28571 8.78571 1.28571C8.21652 1.28571 7.67243 1.53683 7.27065 1.93025L2.1981 7.01116C2.14788 7.06138 2.08091 7.09487 2.00558 7.09487C1.8298 7.09487 1.36105 6.62612 1.36105 6.45033C1.36105 6.38337 1.39453 6.31641 1.44475 6.26618L6.50893 1.19364C7.11998 0.590959 7.94029 0.247767 8.79408 0.247767C10.5686 0.247767 11.9665 1.66239 11.9665 3.43694C11.9665 4.28237 11.615 5.10268 11.0206 5.70536L4.51674 12.2009C3.99777 12.7199 3.28627 13.0379 2.54966 13.0379C1.24386 13.0379 0.247767 12.0419 0.247767 10.736Z" fill="white"/>
</svg>
