<svg width="15" height="15" viewBox="0 0 15 15" fill="none" xmlns="http://www.w3.org/2000/svg">
<path d="M2.10938 2.24805C3.53516 0.822266 5.25391 0.109375 7.26562 0.109375C9.27734 0.109375 10.9863 0.822266 12.3926 2.24805C13.8184 3.6543 14.5312 5.36328 14.5312 7.375C14.5312 9.38672 13.8184 11.1055 12.3926 12.5312C10.9863 13.9375 9.27734 14.6406 7.26562 14.6406C5.25391 14.6406 3.53516 13.9375 2.10938 12.5312C0.703125 11.1055 0 9.38672 0 7.375C0 5.36328 0.703125 3.6543 2.10938 2.24805ZM7.26562 13.2344C8.88672 13.2344 10.2637 12.668 11.3965 11.5352C12.5488 10.3828 13.125 8.99609 13.125 7.375C13.125 5.75391 12.5488 4.37695 11.3965 3.24414C10.2637 2.0918 8.88672 1.51562 7.26562 1.51562C5.64453 1.51562 4.25781 2.0918 3.10547 3.24414C1.97266 4.37695 1.40625 5.75391 1.40625 7.375C1.40625 8.99609 1.97266 10.3828 3.10547 11.5352C4.25781 12.668 5.64453 13.2344 7.26562 13.2344ZM10.2539 6.17383C10.0781 6.34961 9.86328 6.4375 9.60938 6.4375C9.35547 6.4375 9.13086 6.34961 8.93555 6.17383C8.75977 5.97852 8.67188 5.75391 8.67188 5.5C8.67188 5.24609 8.75977 5.03125 8.93555 4.85547C9.13086 4.66016 9.35547 4.5625 9.60938 4.5625C9.86328 4.5625 10.0781 4.66016 10.2539 4.85547C10.4492 5.03125 10.5469 5.24609 10.5469 5.5C10.5469 5.75391 10.4492 5.97852 10.2539 6.17383ZM5.56641 6.17383C5.39062 6.34961 5.17578 6.4375 4.92188 6.4375C4.66797 6.4375 4.44336 6.34961 4.24805 6.17383C4.07227 5.97852 3.98438 5.75391 3.98438 5.5C3.98438 5.24609 4.07227 5.03125 4.24805 4.85547C4.44336 4.66016 4.66797 4.5625 4.92188 4.5625C5.17578 4.5625 5.39062 4.66016 5.56641 4.85547C5.76172 5.03125 5.85938 5.24609 5.85938 5.5C5.85938 5.75391 5.76172 5.97852 5.56641 6.17383ZM10.6055 8.3125C10.7422 8.3125 10.8496 8.36133 10.9277 8.45898C11.0059 8.53711 11.0352 8.63477 11.0156 8.75195C10.8984 9.63086 10.498 10.3633 9.81445 10.9492C9.15039 11.5352 8.36914 11.8281 7.4707 11.8281H7.06055C6.16211 11.8281 5.37109 11.5352 4.6875 10.9492C4.02344 10.3633 3.63281 9.63086 3.51562 8.75195C3.49609 8.63477 3.52539 8.53711 3.60352 8.45898C3.68164 8.36133 3.78906 8.3125 3.92578 8.3125H10.6055Z" fill="white"/>
</svg>
