<svg width="10" height="15" viewBox="0 0 10 15" fill="none" xmlns="http://www.w3.org/2000/svg">
<path d="M9.64286 6.03571C9.64286 5.74275 9.40011 5.5 9.10714 5.5C8.81417 5.5 8.57143 5.74275 8.57143 6.03571V7.10714C8.57143 9.17466 6.88895 10.8571 4.82143 10.8571C2.75391 10.8571 1.07143 9.17466 1.07143 7.10714V6.03571C1.07143 5.74275 0.828683 5.5 0.535714 5.5C0.242746 5.5 0 5.74275 0 6.03571V7.10714C0 9.58482 1.875 11.6272 4.28571 11.8951V13H2.14286C1.84989 13 1.60714 13.2427 1.60714 13.5357C1.60714 13.8287 1.84989 14.0714 2.14286 14.0714H7.5C7.79297 14.0714 8.03571 13.8287 8.03571 13.5357C8.03571 13.2427 7.79297 13 7.5 13H5.35714V11.8951C7.76786 11.6272 9.64286 9.58482 9.64286 7.10714V6.03571ZM7.5 2.82143C7.5 1.34821 6.29464 0.142856 4.82143 0.142856C3.34821 0.142856 2.14286 1.34821 2.14286 2.82143V7.10714C2.14286 8.58036 3.34821 9.78571 4.82143 9.78571C6.29464 9.78571 7.5 8.58036 7.5 7.10714V2.82143Z" fill="white"/>
</svg>
